<svg width="36" height="36" viewBox="0 0 36 36" fill="none" xmlns="http://www.w3.org/2000/svg">
<g id="Compare 2">
<path id="Vector" d="M15.5501 31.5H7.00012C6.32512 31.5 5.73963 31.2521 5.24363 30.7564C4.74788 30.2604 4.5 29.6749 4.5 28.9999V7.00012C4.5 6.32512 4.74788 5.73963 5.24363 5.24363C5.73963 4.74788 6.32512 4.5 7.00012 4.5H15.5501V2.74988C15.5501 2.39588 15.6702 2.099 15.9105 1.85925C16.151 1.61975 16.449 1.5 16.8045 1.5C17.1597 1.5 17.4561 1.61975 17.6936 1.85925C17.9311 2.099 18.0499 2.39588 18.0499 2.74988V33.2501C18.0499 33.6041 17.9298 33.901 17.6895 34.1408C17.449 34.3802 17.151 34.5 16.7955 34.5C16.4403 34.5 16.1439 34.3802 15.9064 34.1408C15.6689 33.901 15.5501 33.6041 15.5501 33.2501V31.5ZM7.00012 27.45H15.5501V17.5249L7.00012 27.45ZM20.55 31.5V17.625L28.9999 27.45V7.00012H20.55V4.5H28.9999C29.6749 4.5 30.2604 4.74788 30.7564 5.24363C31.2521 5.73963 31.5 6.32512 31.5 7.00012V28.9999C31.5 29.6749 31.2521 30.2604 30.7564 30.7564C30.2604 31.2521 29.6749 31.5 28.9999 31.5H20.55Z" fill="#4176FF"/>
</g>
</svg>
