<svg width="25" height="24" viewBox="0 0 25 24" fill="none" xmlns="http://www.w3.org/2000/svg">
<g id="Criteria icons" clip-path="url(#clip0_1201_6988)">
<path id="Vector" d="M15.495 7H12.2847C11.6589 7.00021 11.0515 7.19421 10.5609 7.55058C10.0702 7.90695 9.72508 8.40484 9.58132 8.9636C9.43755 9.52236 9.50359 10.1093 9.76873 10.6293C10.0339 11.1494 10.4826 11.5721 11.0422 11.829L13.9648 13.171C14.5244 13.4279 14.9731 13.8506 15.2383 14.3707C15.5034 14.8907 15.5694 15.4776 15.4257 16.0364C15.2819 16.5952 14.9368 17.093 14.4461 17.4494C13.9555 17.8058 13.3481 17.9998 12.7223 18H9.5M12.5 18.5V20.5M12.5 5V6.5M23.5 12C23.5 18.0751 18.5751 23 12.5 23C6.42487 23 1.5 18.0751 1.5 12C1.5 5.92487 6.42487 1 12.5 1C18.5751 1 23.5 5.92487 23.5 12Z" stroke="#6E6F73" stroke-width="1.5" stroke-linecap="round" stroke-linejoin="round"/>
</g>
<defs>
<clipPath id="clip0_1201_6988">
<rect width="24" height="24" fill="white" transform="translate(0.5)"/>
</clipPath>
</defs>
</svg>
