<svg width="25" height="24" viewBox="0 0 25 24" fill="none" xmlns="http://www.w3.org/2000/svg">
<g id="Criteria icons">
<path id="Vector" d="M7.5 4C7.5 5.65685 6.15685 7 4.5 7C2.84315 7 1.5 5.65685 1.5 4C1.5 2.34315 2.84315 1 4.5 1C6.15685 1 7.5 2.34315 7.5 4ZM7.5 4H16.5C18.7091 4 20.5 5.79086 20.5 8C20.5 10.2091 18.7091 12 16.5 12H8.5C6.29086 12 4.5 13.7909 4.5 16C4.5 18.2091 6.29086 20 8.5 20H17.5M17.5 20C17.5 21.6569 18.8431 23 20.5 23C22.1569 23 23.5 21.6569 23.5 20C23.5 18.3431 22.1569 17 20.5 17C18.8431 17 17.5 18.3431 17.5 20Z" stroke="#6E6F73" stroke-width="1.5"/>
</g>
</svg>
