<svg width="24" height="24" viewBox="0 0 24 24" fill="none" xmlns="http://www.w3.org/2000/svg">
<g id="Criteria icons">
<path id="Vector" d="M15.3521 13H22.5149C22.5801 12.9992 22.6448 13.0122 22.705 13.0383C22.7652 13.0644 22.8196 13.1031 22.865 13.152C22.9103 13.2009 22.9457 13.2589 22.9688 13.3225C22.992 13.3862 23.0024 13.454 22.9995 13.522C22.872 15.8148 21.9098 17.9698 20.31 19.546C18.7102 21.1221 16.5939 22 14.3943 22H9.60567C7.40614 22 5.2898 21.1221 3.69002 19.546C2.09023 17.9698 1.12804 15.8148 1.00047 13.522C0.997592 13.454 1.00804 13.3862 1.03118 13.3225C1.05432 13.2589 1.08966 13.2009 1.13503 13.152C1.1804 13.1031 1.23485 13.0644 1.29504 13.0383C1.35523 13.0122 1.4199 12.9992 1.48508 13H6.25362M3.5 13V10.5C3.50002 10.2285 3.57372 9.96212 3.71324 9.72923C3.85276 9.49634 4.05287 9.30568 4.29223 9.17759C4.5316 9.04949 4.80124 8.98875 5.07241 9.00186C5.34358 9.01496 5.6061 9.10142 5.832 9.252L8.609 11.1C8.86226 11.2669 9.15992 11.3535 9.46316 11.3487C9.76641 11.3439 10.0612 11.2478 10.309 11.073L11.423 10.273C11.5833 10.1585 11.7647 10.0767 11.9566 10.0322C12.1486 9.98781 12.3474 9.98162 12.5418 10.014C12.7361 10.0464 12.9222 10.1168 13.0894 10.2211C13.2565 10.3254 13.4015 10.4617 13.516 10.622C13.6305 10.7823 13.7123 10.9637 13.7568 11.1556C13.8012 11.3476 13.8074 11.5464 13.775 11.7408C13.7426 11.9351 13.6722 12.1212 13.5679 12.2884C13.4636 12.4555 13.3273 12.6005 13.167 12.715L12.052 13.515C11.3075 14.0418 10.4212 14.3316 9.50918 14.3462C8.5972 14.3608 7.70207 14.0997 6.941 13.597L6 13M7.5 4.5C7.5 5.88071 6.38071 7 5 7C3.61929 7 2.5 5.88071 2.5 4.5C2.5 3.11929 3.61929 2 5 2C6.38071 2 7.5 3.11929 7.5 4.5Z" stroke="#6E6F73" stroke-width="1.3" stroke-linecap="round" stroke-linejoin="round"/>
</g>
</svg>
