<svg width="25" height="24" viewBox="0 0 25 24" fill="none" xmlns="http://www.w3.org/2000/svg">
<g id="Criteria icons">
<path id="Vector" d="M3.5 12H21.5M3.5 12C3.23478 12 2.98043 12.1475 2.79289 12.4101C2.60536 12.6726 2.5 13.0287 2.5 13.4V19H22.5V13.4C22.5 13.0287 22.3946 12.6726 22.2071 12.4101C22.0196 12.1475 21.7652 12 21.5 12M3.5 12C3.5 10.9391 4.13214 9.92172 5.25736 9.17157C6.38258 8.42143 7.9087 8 9.5 8H15.5C17.0913 8 18.6174 8.42143 19.7426 9.17157C20.8679 9.92172 21.5 10.9391 21.5 12M3.5 19.25V21.75M21.5 19.25V21.75M3.5 11V5.66667C3.5 4.95942 3.71071 4.28115 4.08579 3.78105C4.46086 3.28095 4.96957 3 5.5 3H19.5C20.0304 3 20.5391 3.28095 20.9142 3.78105C21.2893 4.28115 21.5 4.95942 21.5 5.66667V11" stroke="#6E6F73" stroke-width="1.3" stroke-linecap="round" stroke-linejoin="round"/>
</g>
</svg>
