<svg width="25" height="24" viewBox="0 0 25 24" fill="none" xmlns="http://www.w3.org/2000/svg">
<g id="Criteria icons" clip-path="url(#clip0_1201_7358)">
<path id="Vector" d="M5.031 11C4.05791 11.0098 3.118 10.6466 2.40426 9.98515C1.69051 9.32366 1.2571 8.41402 1.193 7.44299C1.19195 6.94567 1.2966 6.45381 1.5 5.99999M8.426 15.977L8.193 19.5H8.913C9.13593 19.5 9.35246 19.5745 9.52821 19.7116C9.70395 19.8488 9.82883 20.0407 9.883 20.257L10.193 21.5H5.693L4.784 13.267L4.693 12.5C4.693 11.5717 5.06175 10.6815 5.71813 10.0251C6.3745 9.36874 7.26474 8.99999 8.193 8.99999H13.193C13.8564 8.97817 14.4957 8.74644 15.019 8.33817C15.5422 7.92989 15.9225 7.36612 16.105 6.72799M18.949 4.63999L19.163 5.60199C19.208 5.75866 19.2176 5.92336 19.1911 6.08419C19.1646 6.24502 19.1027 6.39795 19.0099 6.53193C18.917 6.66591 18.7956 6.77758 18.6543 6.85887C18.5131 6.94017 18.3555 6.98905 18.193 7.00199H16.754C16.5915 6.98905 16.4339 6.94017 16.2927 6.85887C16.1514 6.77758 16.03 6.66591 15.9371 6.53193C15.8443 6.39795 15.7824 6.24502 15.7559 6.08419C15.7294 5.92336 15.739 5.75866 15.784 5.60199L16.284 3.35199C16.3245 3.12076 16.4428 2.91029 16.6191 2.75537C16.7955 2.60045 17.0195 2.51036 17.254 2.49999H18.693C19.35 2.417 20.0148 2.5735 20.5658 2.94081C21.1168 3.30812 21.5169 3.86165 21.693 4.49999H22.806C22.9645 4.49995 23.1206 4.53757 23.2617 4.60974C23.4028 4.68191 23.5247 4.78656 23.6173 4.91509C23.71 5.04361 23.7708 5.19231 23.7948 5.34894C23.8187 5.50558 23.8051 5.66566 23.755 5.81599L23.367 6.97899C23.3138 7.13858 23.2213 7.28219 23.0978 7.3965C22.9744 7.51082 22.8242 7.59216 22.661 7.63299L20.193 8.24999C20.2409 12.0529 19.7356 15.8425 18.693 19.5H19.413C19.6359 19.5 19.8525 19.5745 20.0282 19.7116C20.204 19.8488 20.3288 20.0407 20.383 20.257L20.693 21.5H16.693L15.193 15.5L8.50007 16" stroke="#6E6F73" stroke-width="1.3" stroke-linecap="round" stroke-linejoin="round"/>
</g>
<defs>
<clipPath id="clip0_1201_7358">
<rect width="24" height="24" fill="white" transform="translate(0.5)"/>
</clipPath>
</defs>
</svg>
