<svg width="25" height="24" viewBox="0 0 25 24" fill="none" xmlns="http://www.w3.org/2000/svg">
<g id="Criteria icons" clip-path="url(#clip0_1201_7374)">
<g id="Union">
<path d="M12.5 0.149902C12.9695 0.149902 13.35 0.53046 13.35 0.999902V2.9999C13.35 3.46934 12.9695 3.8499 12.5 3.8499C12.0306 3.8499 11.65 3.46934 11.65 2.9999V0.999902C11.65 0.53046 12.0306 0.149902 12.5 0.149902Z" fill="#6E6F73"/>
<path fill-rule="evenodd" clip-rule="evenodd" d="M6.65002 11.9999C6.65002 8.76904 9.26916 6.1499 12.5 6.1499C15.7309 6.1499 18.35 8.76904 18.35 11.9999C18.35 15.2308 15.7309 17.8499 12.5 17.8499C9.26916 17.8499 6.65002 15.2308 6.65002 11.9999ZM12.5 7.8499C10.208 7.8499 8.35002 9.70792 8.35002 11.9999C8.35002 14.2919 10.208 16.1499 12.5 16.1499C14.792 16.1499 16.65 14.2919 16.65 11.9999C16.65 9.70792 14.792 7.8499 12.5 7.8499Z" fill="#6E6F73"/>
<path d="M13.35 20.9999C13.35 20.5305 12.9695 20.1499 12.5 20.1499C12.0306 20.1499 11.65 20.5305 11.65 20.9999V22.9999C11.65 23.4693 12.0306 23.8499 12.5 23.8499C12.9695 23.8499 13.35 23.4693 13.35 22.9999V20.9999Z" fill="#6E6F73"/>
<path d="M4.11895 3.61883C4.4509 3.28689 4.98909 3.28689 5.32104 3.61883L6.74104 5.03883C7.07298 5.37078 7.07298 5.90897 6.74104 6.24091C6.40909 6.57286 5.8709 6.57286 5.53895 6.24091L4.11895 4.82091C3.78701 4.48897 3.78701 3.95078 4.11895 3.61883Z" fill="#6E6F73"/>
<path d="M19.4612 17.7588C19.1292 17.4269 18.591 17.4269 18.2591 17.7588C17.9271 18.0908 17.9271 18.629 18.2591 18.9609L19.6791 20.3809C20.011 20.7129 20.5492 20.7129 20.8812 20.3809C21.2131 20.049 21.2131 19.5108 20.8812 19.1788L19.4612 17.7588Z" fill="#6E6F73"/>
<path d="M0.650024 11.9999C0.650024 11.5305 1.03058 11.1499 1.50002 11.1499H3.50002C3.96947 11.1499 4.35002 11.5305 4.35002 11.9999C4.35002 12.4693 3.96947 12.8499 3.50002 12.8499H1.50002C1.03058 12.8499 0.650024 12.4693 0.650024 11.9999Z" fill="#6E6F73"/>
<path d="M21.5 11.1499C21.0306 11.1499 20.65 11.5305 20.65 11.9999C20.65 12.4693 21.0306 12.8499 21.5 12.8499H23.5C23.9695 12.8499 24.35 12.4693 24.35 11.9999C24.35 11.5305 23.9695 11.1499 23.5 11.1499H21.5Z" fill="#6E6F73"/>
<path d="M6.74104 17.7588C7.07298 18.0908 7.07298 18.629 6.74104 18.9609L5.32104 20.3809C4.98909 20.7129 4.4509 20.7129 4.11895 20.3809C3.78701 20.049 3.78701 19.5108 4.11895 19.1788L5.53895 17.7588C5.8709 17.4269 6.40909 17.4269 6.74104 17.7588Z" fill="#6E6F73"/>
<path d="M20.8812 4.82091C21.2131 4.48897 21.2131 3.95078 20.8812 3.61883C20.5492 3.28689 20.011 3.28689 19.6791 3.61883L18.2591 5.03883C17.9271 5.37078 17.9271 5.90897 18.2591 6.24091C18.591 6.57286 19.1292 6.57286 19.4612 6.24091L20.8812 4.82091Z" fill="#6E6F73"/>
</g>
</g>
<defs>
<clipPath id="clip0_1201_7374">
<rect width="24" height="24" fill="white" transform="translate(0.5)"/>
</clipPath>
</defs>
</svg>
