<svg width="25" height="24" viewBox="0 0 25 24" fill="none" xmlns="http://www.w3.org/2000/svg">
<g id="Criteria icons">
<path id="Vector" d="M6.5 14.0001L18.5 14.0001M6.5 18.0001L18.5 18.0001M6.5 21.5001V10.5001C6.5 10.2239 6.72182 10.0001 6.99796 10.0001H18.0031C18.2792 10.0001 18.5 10.2239 18.5 10.5001V21.5001C18.5 21.7762 18.2761 22.0001 18 22.0001H7C6.72386 22.0001 6.5 21.7762 6.5 21.5001ZM2.9855 7.70877L11.9855 2.30877C12.3022 2.11876 12.6978 2.11876 13.0145 2.30877L22.0145 7.70877C22.3157 7.88949 22.5 8.215 22.5 8.56626V21.0001C22.5 21.5524 22.0523 22.0001 21.5 22.0001H3.5C2.94772 22.0001 2.5 21.5524 2.5 21.0001V8.56626C2.5 8.215 2.6843 7.88949 2.9855 7.70877Z" stroke="#6E6F73" stroke-width="1.5"/>
</g>
</svg>
