<svg width="25" height="24" viewBox="0 0 25 24" fill="none" xmlns="http://www.w3.org/2000/svg">
<g id="Criteria icons">
<g id="Union">
<path fill-rule="evenodd" clip-rule="evenodd" d="M0.75 3C0.75 1.48122 1.98122 0.25 3.5 0.25C5.01878 0.25 6.25 1.48122 6.25 3C6.25 4.51878 5.01878 5.75 3.5 5.75C1.98122 5.75 0.75 4.51878 0.75 3ZM3.5 1.75C2.80964 1.75 2.25 2.30964 2.25 3C2.25 3.69036 2.80964 4.25 3.5 4.25C4.19036 4.25 4.75 3.69036 4.75 3C4.75 2.30964 4.19036 1.75 3.5 1.75Z" fill="#6E6F73"/>
<path d="M8.5 2.25C8.08579 2.25 7.75 2.58579 7.75 3C7.75 3.41421 8.08579 3.75 8.5 3.75H10.5C10.9142 3.75 11.25 3.41421 11.25 3C11.25 2.58579 10.9142 2.25 10.5 2.25L8.5 2.25Z" fill="#6E6F73"/>
<path d="M14.5 2.25C14.0858 2.25 13.75 2.58579 13.75 3C13.75 3.41421 14.0858 3.75 14.5 3.75H16.5C16.9142 3.75 17.25 3.41421 17.25 3C17.25 2.58579 16.9142 2.25 16.5 2.25L14.5 2.25Z" fill="#6E6F73"/>
<path d="M8.5 20.25C8.08579 20.25 7.75 20.5858 7.75 21C7.75 21.4142 8.08579 21.75 8.5 21.75H16.5C16.9142 21.75 17.25 21.4142 17.25 21C17.25 20.5858 16.9142 20.25 16.5 20.25H8.5Z" fill="#6E6F73"/>
<path fill-rule="evenodd" clip-rule="evenodd" d="M3.5 18.25C1.98122 18.25 0.75 19.4812 0.75 21C0.75 22.5188 1.98122 23.75 3.5 23.75C5.01878 23.75 6.25 22.5188 6.25 21C6.25 19.4812 5.01878 18.25 3.5 18.25ZM2.25 21C2.25 20.3096 2.80964 19.75 3.5 19.75C4.19036 19.75 4.75 20.3096 4.75 21C4.75 21.6904 4.19036 22.25 3.5 22.25C2.80964 22.25 2.25 21.6904 2.25 21Z" fill="#6E6F73"/>
<path fill-rule="evenodd" clip-rule="evenodd" d="M18.75 21C18.75 19.4812 19.9812 18.25 21.5 18.25C23.0188 18.25 24.25 19.4812 24.25 21C24.25 22.5188 23.0188 23.75 21.5 23.75C19.9812 23.75 18.75 22.5188 18.75 21ZM21.5 19.75C20.8096 19.75 20.25 20.3096 20.25 21C20.25 21.6904 20.8096 22.25 21.5 22.25C22.1904 22.25 22.75 21.6904 22.75 21C22.75 20.3096 22.1904 19.75 21.5 19.75Z" fill="#6E6F73"/>
<path fill-rule="evenodd" clip-rule="evenodd" d="M21.5 0.25C19.9812 0.25 18.75 1.48122 18.75 3C18.75 4.51878 19.9812 5.75 21.5 5.75C23.0188 5.75 24.25 4.51878 24.25 3C24.25 1.48122 23.0188 0.25 21.5 0.25ZM20.25 3C20.25 2.30964 20.8096 1.75 21.5 1.75C22.1904 1.75 22.75 2.30964 22.75 3C22.75 3.69036 22.1904 4.25 21.5 4.25C20.8096 4.25 20.25 3.69036 20.25 3Z" fill="#6E6F73"/>
<path d="M3.5 7.25C3.91421 7.25 4.25 7.58579 4.25 8V16C4.25 16.4142 3.91421 16.75 3.5 16.75C3.08579 16.75 2.75 16.4142 2.75 16V8C2.75 7.58579 3.08579 7.25 3.5 7.25Z" fill="#6E6F73"/>
<path d="M22.25 8C22.25 7.58579 21.9142 7.25 21.5 7.25C21.0858 7.25 20.75 7.58579 20.75 8V10C20.75 10.4142 21.0858 10.75 21.5 10.75C21.9142 10.75 22.25 10.4142 22.25 10V8Z" fill="#6E6F73"/>
<path d="M22.25 14C22.25 13.5858 21.9142 13.25 21.5 13.25C21.0858 13.25 20.75 13.5858 20.75 14V16C20.75 16.4142 21.0858 16.75 21.5 16.75C21.9142 16.75 22.25 16.4142 22.25 16V14Z" fill="#6E6F73"/>
</g>
</g>
</svg>
