<svg width="24" height="25" viewBox="0 0 24 25" fill="none" xmlns="http://www.w3.org/2000/svg">
<g id="Criteria icons">
<path id="Rectangle-path" fill-rule="evenodd" clip-rule="evenodd" d="M5 12.5C5 12.2239 5.22386 12 5.5 12H18.5C18.7761 12 19 12.2239 19 12.5V23.5C19 23.7761 18.7761 24 18.5 24H5.5C5.22386 24 5 23.7761 5 23.5V12.5Z" stroke="#6E6F73" stroke-width="1.3" stroke-linecap="round" stroke-linejoin="round"/>
<path id="Shape" d="M16 12V4.66667C16 4.29848 15.7442 4 15.4286 4H8.57143C8.25584 4 8 4.29848 8 4.66667V12" stroke="#6E6F73" stroke-width="1.3" stroke-linecap="round" stroke-linejoin="round"/>
<path id="Vector 14" d="M12 4V1" stroke="#6E6F73" stroke-width="1.3" stroke-linecap="round"/>
<path id="Vector 15" d="M9 16H15" stroke="#6E6F73" stroke-width="1.3" stroke-linecap="round"/>
<path id="Vector 17" d="M11 8H13" stroke="#6E6F73" stroke-width="1.3" stroke-linecap="round"/>
<path id="Vector 16" d="M9 20H15" stroke="#6E6F73" stroke-width="1.3" stroke-linecap="round"/>
</g>
</svg>
