<svg width="25" height="25" viewBox="0 0 25 25" fill="none" xmlns="http://www.w3.org/2000/svg">
<g id="Criteria icons">
<path id="Shape" fill-rule="evenodd" clip-rule="evenodd" d="M20.7486 23.2C20.658 23.666 20.2673 24.0006 19.8143 24H5.18571C4.73272 24.0006 4.34203 23.666 4.25143 23.2L2.5 14H22.5L20.7486 23.2Z" stroke="#6E6F73" stroke-width="1.3" stroke-linecap="round" stroke-linejoin="round"/>
<path id="Rectangle-path" fill-rule="evenodd" clip-rule="evenodd" d="M1.5 11C1.5 10.4477 1.94772 10 2.5 10H22.5C23.0523 10 23.5 10.4477 23.5 11V13C23.5 13.5523 23.0523 14 22.5 14H2.5C1.94772 14 1.5 13.5523 1.5 13V11Z" stroke="#6E6F73" stroke-width="1.3" stroke-linecap="round" stroke-linejoin="round"/>
<path id="Shape_2" d="M4 7.5L10 1.5" stroke="#6E6F73" stroke-width="1.3" stroke-linecap="round" stroke-linejoin="round"/>
<path id="Shape_3" d="M21 7.5L15 1.5" stroke="#6E6F73" stroke-width="1.3" stroke-linecap="round" stroke-linejoin="round"/>
<path id="Vector 13" d="M7.5 19H17.5" stroke="#6E6F73" stroke-width="1.3" stroke-linecap="round"/>
</g>
</svg>
