<svg width="25" height="25" viewBox="0 0 25 25" fill="none" xmlns="http://www.w3.org/2000/svg">
<g id="Criteria icons">
<path id="Shape" d="M2.5 23.56L4.182 4.98686C4.36198 3.00268 6.09232 1.47994 8.167 1.47998H16.5C18.5747 1.47994 20.305 3.00268 20.485 4.98686L22.5 23.56" stroke="#6E6F73" stroke-width="1.3" stroke-linecap="round" stroke-linejoin="round"/>
<path id="Shape_2" d="M1 23.5601H4" stroke="#6E6F73" stroke-width="1.3" stroke-linecap="round" stroke-linejoin="round"/>
<path id="Shape_3" d="M21 23.5601H24" stroke="#6E6F73" stroke-width="1.3" stroke-linecap="round" stroke-linejoin="round"/>
<path id="Shape_4" d="M9 1.47998V16" stroke="#6E6F73" stroke-width="1.3" stroke-linecap="round" stroke-linejoin="round"/>
<path id="Shape_5" d="M16 1.47998V16" stroke="#6E6F73" stroke-width="1.3" stroke-linecap="round" stroke-linejoin="round"/>
<path id="Shape_6" fill-rule="evenodd" clip-rule="evenodd" d="M17.5 17.3333C17.5 18.8061 16.5051 20 15.2778 20H9.72222C8.49492 20 7.5 18.8061 7.5 17.3333C7.5 16.597 7.99746 16 8.61111 16H16.3889C17.0025 16 17.5 16.597 17.5 17.3333Z" stroke="#6E6F73" stroke-width="1.3" stroke-linecap="round" stroke-linejoin="round"/>
</g>
</svg>
