<svg width="26" height="24" viewBox="0 0 26 24" fill="none" xmlns="http://www.w3.org/2000/svg">
<g id="Criteria icons">
<path id="Shape" d="M24.5 22.4419C22 22.9629 20.44 20.4629 20.44 20.4629C19.654 21.7117 18.2942 22.4834 16.819 22.5179C15.3544 22.4478 14.0106 21.6848 13.2 20.4629C12.4142 21.7115 11.0549 22.4831 9.58 22.5179C8.11469 22.4493 6.76998 21.6859 5.96 20.4629C5.96 20.4629 3.952 22.9999 1.5 22.4829" stroke="#6E6F73" stroke-width="1.5" stroke-linecap="round" stroke-linejoin="round"/>
<path id="Shape_2" d="M8 17.727V3.94702C8 2.56631 9.11929 1.44702 10.5 1.44702C11.8807 1.44702 13 2.56631 13 3.94702V4.94702" stroke="#6E6F73" stroke-width="1.5" stroke-linecap="round" stroke-linejoin="round"/>
<path id="Shape_3" d="M19 17.942V3.94702C19 2.56631 20.1193 1.44702 21.5 1.44702C22.8807 1.44702 24 2.56631 24 3.94702V4.94702" stroke="#6E6F73" stroke-width="1.5" stroke-linecap="round" stroke-linejoin="round"/>
<path id="Shape_4" d="M8 9H19" stroke="#6E6F73" stroke-width="1.5" stroke-linecap="round" stroke-linejoin="round"/>
<path id="Shape_5" d="M8 13H19" stroke="#6E6F73" stroke-width="1.5" stroke-linecap="round" stroke-linejoin="round"/>
</g>
</svg>
