<svg width="36" height="36" viewBox="0 0 36 36" fill="none" xmlns="http://www.w3.org/2000/svg">
<g id="Endless" clip-path="url(#clip0_1114_4402)">
<path id="Vector" d="M8.05013 26.25C5.78338 26.25 3.875 25.4375 2.325 23.8125C0.775 22.1875 0 20.2334 0 17.9501C0 15.6834 0.779125 13.75 2.33738 12.15C3.89588 10.55 5.80013 9.75 8.05013 9.75C8.95837 9.75 9.83338 9.90413 10.6751 10.2124C11.5166 10.5209 12.2666 10.9834 12.9251 11.5999L16.0999 14.625L14.2999 16.35L11.2999 13.4749C10.8666 13.0584 10.3709 12.7501 9.81263 12.5501C9.25413 12.3501 8.66663 12.2501 8.05013 12.2501C6.50013 12.2501 5.18762 12.8084 4.11263 13.9249C3.03763 15.0416 2.50012 16.3834 2.50012 17.9501C2.50012 19.5334 3.03338 20.8959 4.09988 22.0376C5.16663 23.1791 6.48338 23.7499 8.05013 23.7499C8.65013 23.7499 9.22925 23.6499 9.7875 23.4499C10.3458 23.2499 10.8499 22.9499 11.2999 22.5499L23.0749 11.5999C23.7334 10.9834 24.4834 10.5209 25.3249 10.2124C26.1666 9.90413 27.0334 9.75 27.9251 9.75C30.1916 9.75 32.1041 10.55 33.6626 12.15C35.2209 13.75 36 15.6834 36 17.9501C36 20.2334 35.2209 22.1875 33.6626 23.8125C32.1041 25.4375 30.1916 26.25 27.9251 26.25C27.0334 26.25 26.1625 26.1 25.3125 25.8C24.4625 25.5 23.7166 25.0416 23.0749 24.4249L19.95 21.4001L21.75 19.6751L24.7001 22.5499C25.1166 22.9499 25.6083 23.2499 26.175 23.4499C26.7418 23.6499 27.3251 23.7499 27.9251 23.7499C29.4916 23.7499 30.8124 23.1791 31.8874 22.0376C32.9624 20.8959 33.4999 19.5334 33.4999 17.9501C33.4999 16.3834 32.9583 15.0416 31.875 13.9249C30.7918 12.8084 29.4751 12.2501 27.9251 12.2501C27.3251 12.2501 26.7459 12.3584 26.1874 12.5749C25.6291 12.7916 25.1334 13.1 24.7001 13.5L12.9251 24.45C12.2666 25.05 11.5124 25.5 10.6624 25.8C9.81238 26.1 8.94163 26.25 8.05013 26.25Z" fill="#4176FF"/>
</g>
<defs>
<clipPath id="clip0_1114_4402">
<rect width="36" height="36" fill="white"/>
</clipPath>
</defs>
</svg>
