<svg width="36" height="36" viewBox="0 0 36 36" fill="none" xmlns="http://www.w3.org/2000/svg">
<g id="Fast">
<path id="Vector" d="M15.2625 23.8126C15.8375 24.3876 16.6687 24.6563 17.7562 24.6188C18.8437 24.5813 19.6375 24.1751 20.1375 23.4001L28.2375 10.6876L15.675 18.9001C14.925 19.4001 14.525 20.2001 14.475 21.3001C14.425 22.4001 14.6875 23.2376 15.2625 23.8126ZM17.925 6.0376C19.35 6.0376 20.8375 6.26885 22.3875 6.73135C23.9375 7.19385 25.425 7.9876 26.85 9.1126L24.9 10.5001C23.775 9.7501 22.5687 9.19385 21.2812 8.83135C19.9937 8.46885 18.8747 8.2876 17.9242 8.2876C14.4125 8.2876 11.4221 9.54035 8.95312 12.0458C6.48437 14.5511 5.25 17.5856 5.25 21.1493C5.25 22.2748 5.40625 23.4126 5.71875 24.5626C6.03125 25.7126 6.475 26.7751 7.05 27.7501H28.7625C29.3125 26.8501 29.75 25.8001 30.075 24.6001C30.4 23.4001 30.5625 22.2251 30.5625 21.0751C30.5625 20.0251 30.4062 18.8938 30.0937 17.6813C29.7812 16.4688 29.225 15.3501 28.425 14.3251L29.8875 12.3751C30.8375 13.7751 31.55 15.1813 32.025 16.5938C32.5 18.0063 32.7625 19.4251 32.8125 20.8501C32.8625 22.3501 32.7125 23.7626 32.3625 25.0876C32.0125 26.4126 31.5 27.6376 30.825 28.7626C30.525 29.3376 30.2062 29.6876 29.8687 29.8126C29.5312 29.9376 29.1125 30.0001 28.6125 30.0001H7.2C6.775 30.0001 6.35625 29.8938 5.94375 29.6813C5.53125 29.4688 5.225 29.1626 5.025 28.7626C4.375 27.5626 3.875 26.3438 3.525 25.1063C3.175 23.8688 3 22.5501 3 21.1501C3 19.0751 3.39375 17.1188 4.18125 15.2813C4.96875 13.4438 6.0375 11.8438 7.3875 10.4813C8.7375 9.11885 10.321 8.0376 12.138 7.2376C13.955 6.4376 15.884 6.0376 17.925 6.0376Z" fill="#4176FF"/>
</g>
</svg>
