<svg width="36" height="36" viewBox="0 0 36 36" fill="none" xmlns="http://www.w3.org/2000/svg">
<g id="Fav">
<path id="Vector" d="M18 30.6627C17.705 30.6627 17.4048 30.6096 17.0993 30.5033C16.7938 30.3971 16.5251 30.2272 16.2934 29.9937L14.1124 27.9875C11.1624 25.2625 8.57288 22.6312 6.34388 20.0937C4.11462 17.5562 3 14.8583 3 12.0001C3 9.7141 3.76663 7.8051 5.29988 6.2731C6.83338 4.7411 8.73337 3.9751 10.9999 3.9751C12.2916 3.9751 13.55 4.27297 14.775 4.86872C16 5.46472 17.075 6.39185 18 7.6501C19.0083 6.39185 20.0999 5.46472 21.2749 4.86872C22.4499 4.27297 23.6916 3.9751 25.0001 3.9751C27.2666 3.9751 29.1666 4.7411 30.7001 6.2731C32.2334 7.8051 33 9.7141 33 12.0001C33 14.8583 31.8875 17.5583 29.6625 20.1001C27.4375 22.6418 24.8416 25.2752 21.8749 28.0002L19.6999 30.0001C19.4709 30.2313 19.2052 30.3996 18.903 30.5048C18.601 30.6101 18.3 30.6627 18 30.6627ZM16.875 10.3002C16.1833 9.14172 15.3333 8.2146 14.325 7.51885C13.3168 6.8231 12.2084 6.47522 10.9999 6.47522C9.39987 6.47522 8.08325 6.99597 7.05 8.03747C6.01675 9.07922 5.50012 10.4037 5.50012 12.011C5.50012 13.4037 5.97825 14.8743 6.9345 16.4228C7.89075 17.9711 9.0345 19.4731 10.3658 20.9288C11.697 22.3846 13.073 23.7417 14.4938 25.0002C15.9145 26.2585 17.0833 27.3085 18 28.1502C18.9168 27.3252 20.0855 26.2793 21.5063 25.0126C22.927 23.7458 24.302 22.3792 25.6313 20.9127C26.9605 19.446 28.1043 17.9381 29.0625 16.3891C30.0208 14.8401 30.4999 13.3771 30.4999 12.0001C30.4999 10.4001 29.9791 9.07922 28.9376 8.03747C27.8959 6.99597 26.5834 6.47522 25.0001 6.47522C23.7751 6.47522 22.6626 6.81897 21.6626 7.50647C20.6626 8.19397 19.8001 9.12522 19.0751 10.3002C18.9334 10.5167 18.7709 10.675 18.5876 10.775C18.4041 10.875 18.1999 10.925 17.9749 10.925C17.7499 10.925 17.5416 10.875 17.3501 10.775C17.1584 10.675 17 10.5167 16.875 10.3002Z" fill="#4176FF"/>
</g>
</svg>
