<svg width="36" height="36" viewBox="0 0 36 36" fill="none" xmlns="http://www.w3.org/2000/svg">
<g id="monitoring_36dp_5F6368_FILL0_wght400_GRAD0_opsz40 (1) 1">
<path id="Vector" d="M5.74575 31.5001C5.39025 31.5001 5.09375 31.3804 4.85625 31.1409C4.61875 30.9011 4.5 30.6042 4.5 30.2502V28.6002C4.5 28.246 4.62025 27.9491 4.86075 27.7096C5.101 27.4699 5.39887 27.35 5.75437 27.35C6.10987 27.35 6.40638 27.4699 6.64388 27.7096C6.88138 27.9491 7.00012 28.246 7.00012 28.6002V30.2502C7.00012 30.6042 6.87988 30.9011 6.63938 31.1409C6.39888 31.3804 6.101 31.5001 5.74575 31.5001ZM11.8706 31.5001C11.5151 31.5001 11.2186 31.3804 10.9811 31.1409C10.7436 30.9011 10.6249 30.6042 10.6249 30.2502V22.3501C10.6249 21.9959 10.7451 21.699 10.9856 21.4595C11.2261 21.22 11.524 21.1002 11.8793 21.1002C12.2348 21.1002 12.5312 21.22 12.7688 21.4595C13.0063 21.699 13.125 21.9959 13.125 22.3501V30.2502C13.125 30.6042 13.0048 30.9011 12.7643 31.1409C12.524 31.3804 12.2261 31.5001 11.8706 31.5001ZM17.9955 31.5001C17.6403 31.5001 17.3439 31.3804 17.1064 31.1409C16.8689 30.9011 16.7501 30.6042 16.7501 30.2502V24.8502C16.7501 24.496 16.8703 24.1991 17.1105 23.9596C17.351 23.7199 17.649 23.6 18.0045 23.6C18.3598 23.6 18.6561 23.7199 18.8936 23.9596C19.1311 24.1991 19.2499 24.496 19.2499 24.8502V30.2502C19.2499 30.6042 19.1298 30.9011 18.8895 31.1409C18.649 31.3804 18.351 31.5001 17.9955 31.5001ZM24.1208 31.5001C23.7652 31.5001 23.4688 31.3804 23.2313 31.1409C22.9938 30.9011 22.875 30.6042 22.875 30.2502V21.6001C22.875 21.2459 22.9953 20.949 23.2358 20.7095C23.476 20.47 23.7739 20.3502 24.1294 20.3502C24.4849 20.3502 24.7814 20.47 25.0189 20.7095C25.2564 20.949 25.3751 21.2459 25.3751 21.6001V30.2502C25.3751 30.6042 25.2549 30.9011 25.0144 31.1409C24.7739 31.3804 24.476 31.5001 24.1208 31.5001ZM30.2456 31.5001C29.8901 31.5001 29.5936 31.3804 29.3561 31.1409C29.1186 30.9011 28.9999 30.6042 28.9999 30.2502V16.6002C28.9999 16.246 29.1201 15.9491 29.3606 15.7096C29.6011 15.4699 29.899 15.35 30.2543 15.35C30.6098 15.35 30.9063 15.4699 31.1438 15.7096C31.3813 15.9491 31.5 16.246 31.5 16.6002V30.2502C31.5 30.6042 31.3798 30.9011 31.1393 31.1409C30.899 31.3804 30.6011 31.5001 30.2456 31.5001ZM20.9876 17.5126C20.6626 17.5126 20.3483 17.4485 20.0445 17.3202C19.741 17.192 19.4636 17.0102 19.2124 16.775L15 12.5626L6.64988 20.8876C6.39888 21.1376 6.10075 21.2564 5.7555 21.2439C5.41025 21.2314 5.11363 21.1001 4.86563 20.8501C4.63863 20.6001 4.523 20.3064 4.51875 19.9689C4.5145 19.6314 4.63325 19.3417 4.875 19.1L13.2375 10.7877C13.4888 10.5397 13.7661 10.359 14.0696 10.2455C14.3731 10.132 14.6833 10.0752 15 10.0752C15.3168 10.0752 15.6321 10.132 15.9461 10.2455C16.2601 10.359 16.5323 10.5397 16.7625 10.7877L21 15.0252L29.3749 6.64998C29.6249 6.39998 29.9186 6.27711 30.2561 6.28136C30.5936 6.28561 30.8864 6.41273 31.1344 6.66273C31.3614 6.91273 31.477 7.20648 31.4813 7.54398C31.4855 7.88148 31.3668 8.17098 31.125 8.41248L22.7625 16.775C22.5375 17.0167 22.2666 17.2001 21.9499 17.3251C21.6334 17.4501 21.3126 17.5126 20.9876 17.5126Z" fill="#4176FF"/>
</g>
</svg>
