<svg width="74" height="58" viewBox="0 0 74 58" fill="none" xmlns="http://www.w3.org/2000/svg">
<g id="quotes">
<path id="Vector" d="M42.8327 27.7043V56C42.8327 57.1046 43.7281 58 44.8327 58H71.6757C72.7802 58 73.6757 57.1046 73.6757 56V29.7043C73.6757 28.5997 72.7802 27.7043 71.6757 27.7043H55.8358C54.7312 27.7043 53.8215 26.8038 53.9732 25.7097C55.0577 17.8892 62.438 11.6824 71.6778 10.8927C72.7783 10.7987 73.6757 9.91237 73.6757 8.8078V1.99994C73.6757 0.89537 72.7777 -0.00614166 71.675 0.0575027C55.586 0.986118 42.8327 13.0332 42.8327 27.7043Z" fill="#E7EDFF"/>
<path id="Vector_2" d="M-7.62939e-05 27.7043V56C-7.62939e-05 57.1046 0.895353 58 1.99992 58H28.8429C29.9475 58 30.8429 57.1046 30.8429 56V29.7043C30.8429 28.5997 29.9475 27.7043 28.8429 27.7043H13.003C11.8984 27.7043 10.9887 26.8038 11.1404 25.7097C12.2249 17.8892 19.6052 11.6824 28.845 10.8927C29.9455 10.7987 30.8429 9.91237 30.8429 8.8078V1.99994C30.8429 0.89537 29.9449 -0.00614166 28.8422 0.0575027C12.7533 0.986118 -7.62939e-05 13.0332 -7.62939e-05 27.7043Z" fill="#E7EDFF"/>
</g>
</svg>
