<svg width="74" height="58" viewBox="0 0 74 58" fill="none" xmlns="http://www.w3.org/2000/svg">
<g id="quotes">
<path id="Vector" d="M30.843 30.2957V2C30.843 0.895431 29.9475 0 28.843 0H2C0.895431 0 0 0.895431 0 2V28.2957C0 29.4003 0.895431 30.2957 2 30.2957H17.8399C18.9445 30.2957 19.8542 31.1962 19.7025 32.2903C18.618 40.1108 11.2377 46.3176 1.9979 47.1073C0.897347 47.2013 0 48.0876 0 49.1922V56.0001C0 57.1046 0.897974 58.0061 2.00071 57.9425C18.0896 57.0139 30.843 44.9668 30.843 30.2957Z" fill="#B3C8FF"/>
<path id="Vector_2" d="M73.6757 30.2957V2C73.6757 0.895431 72.7802 0 71.6757 0H44.8327C43.7281 0 42.8327 0.895431 42.8327 2V28.2957C42.8327 29.4003 43.7281 30.2957 44.8327 30.2957H60.6726C61.7772 30.2957 62.6869 31.1962 62.5352 32.2903C61.4507 40.1108 54.0704 46.3176 44.8306 47.1073C43.73 47.2013 42.8327 48.0876 42.8327 49.1922V56.0001C42.8327 57.1046 43.7307 58.0061 44.8334 57.9425C60.9223 57.0139 73.6757 44.9668 73.6757 30.2957Z" fill="#B3C8FF"/>
</g>
</svg>
