<svg width="20" height="20" viewBox="0 0 24 24" fill="none" xmlns="http://www.w3.org/2000/svg">
<path d="M19.7945 14.4065C14.2327 16.244 12.3807 18.0964 10.5431 23.6579C10.3919 24.1151 9.74542 24.1151 9.59426 23.6579C7.75677 18.0961 5.90436 16.244 0.342914 14.4065C-0.114305 14.2553 -0.114305 13.6088 0.342914 13.4576C5.90467 11.6201 7.75671 9.76768 9.59426 4.2062C9.74544 3.74898 10.392 3.74898 10.5431 4.2062C12.3806 9.76799 14.233 11.62 19.7945 13.4576C20.2517 13.6088 20.2517 14.2553 19.7945 14.4065Z" fill="url(#paint0_linear_1824_6708)"/>
<path d="M23.8284 5.27223C21.0482 6.19038 20.1215 7.11713 19.2021 9.89856C19.1272 10.1272 18.8039 10.1272 18.7277 9.89856C17.8095 7.11832 16.8828 6.19164 14.1014 5.27223C13.8728 5.19725 13.8728 4.874 14.1014 4.79779C16.8816 3.87964 17.8083 2.95289 18.7277 0.17146C18.8027 -0.0571535 19.1259 -0.0571535 19.2021 0.17146C20.1203 2.9517 21.047 3.87838 23.8284 4.79779C24.057 4.87277 24.057 5.19602 23.8284 5.27223Z" fill="url(#paint1_linear_1824_6708)"/>
<defs>
<linearGradient id="paint0_linear_1824_6708" x1="0.77204" y1="24.0008" x2="18.5206" y2="23.6457" gradientUnits="userSpaceOnUse">
<stop stop-color="#7F87E1"/>
<stop offset="1" stop-color="#E95DFF"/>
</linearGradient>
<linearGradient id="paint1_linear_1824_6708" x1="14.316" y1="10.07" x2="23.1914" y2="9.89245" gradientUnits="userSpaceOnUse">
<stop stop-color="#7F87E1"/>
<stop offset="1" stop-color="#E95DFF"/>
</linearGradient>
</defs>
</svg>
