<svg width="24" height="24" viewBox="0 0 24 24" fill="none" xmlns="http://www.w3.org/2000/svg">
<path fill-rule="evenodd" clip-rule="evenodd" d="M0.25 3C0.25 1.48122 1.48122 0.25 3 0.25C4.51878 0.25 5.75 1.48122 5.75 3C5.75 4.51878 4.51878 5.75 3 5.75C1.48122 5.75 0.25 4.51878 0.25 3ZM3 1.75C2.30964 1.75 1.75 2.30964 1.75 3C1.75 3.69036 2.30964 4.25 3 4.25C3.69036 4.25 4.25 3.69036 4.25 3C4.25 2.30964 3.69036 1.75 3 1.75Z" fill="#6E6F73"/>
<path d="M8 2.25C7.58579 2.25 7.25 2.58579 7.25 3C7.25 3.41421 7.58579 3.75 8 3.75H10C10.4142 3.75 10.75 3.41421 10.75 3C10.75 2.58579 10.4142 2.25 10 2.25L8 2.25Z" fill="#6E6F73"/>
<path d="M14 2.25C13.5858 2.25 13.25 2.58579 13.25 3C13.25 3.41421 13.5858 3.75 14 3.75H16C16.4142 3.75 16.75 3.41421 16.75 3C16.75 2.58579 16.4142 2.25 16 2.25L14 2.25Z" fill="#6E6F73"/>
<path d="M8 20.25C7.58579 20.25 7.25 20.5858 7.25 21C7.25 21.4142 7.58579 21.75 8 21.75H16C16.4142 21.75 16.75 21.4142 16.75 21C16.75 20.5858 16.4142 20.25 16 20.25H8Z" fill="#6E6F73"/>
<path fill-rule="evenodd" clip-rule="evenodd" d="M3 18.25C1.48122 18.25 0.25 19.4812 0.25 21C0.25 22.5188 1.48122 23.75 3 23.75C4.51878 23.75 5.75 22.5188 5.75 21C5.75 19.4812 4.51878 18.25 3 18.25ZM1.75 21C1.75 20.3096 2.30964 19.75 3 19.75C3.69036 19.75 4.25 20.3096 4.25 21C4.25 21.6904 3.69036 22.25 3 22.25C2.30964 22.25 1.75 21.6904 1.75 21Z" fill="#6E6F73"/>
<path fill-rule="evenodd" clip-rule="evenodd" d="M18.25 21C18.25 19.4812 19.4812 18.25 21 18.25C22.5188 18.25 23.75 19.4812 23.75 21C23.75 22.5188 22.5188 23.75 21 23.75C19.4812 23.75 18.25 22.5188 18.25 21ZM21 19.75C20.3096 19.75 19.75 20.3096 19.75 21C19.75 21.6904 20.3096 22.25 21 22.25C21.6904 22.25 22.25 21.6904 22.25 21C22.25 20.3096 21.6904 19.75 21 19.75Z" fill="#6E6F73"/>
<path fill-rule="evenodd" clip-rule="evenodd" d="M21 0.25C19.4812 0.25 18.25 1.48122 18.25 3C18.25 4.51878 19.4812 5.75 21 5.75C22.5188 5.75 23.75 4.51878 23.75 3C23.75 1.48122 22.5188 0.25 21 0.25ZM19.75 3C19.75 2.30964 20.3096 1.75 21 1.75C21.6904 1.75 22.25 2.30964 22.25 3C22.25 3.69036 21.6904 4.25 21 4.25C20.3096 4.25 19.75 3.69036 19.75 3Z" fill="#6E6F73"/>
<path d="M3 7.25C3.41421 7.25 3.75 7.58579 3.75 8V16C3.75 16.4142 3.41421 16.75 3 16.75C2.58579 16.75 2.25 16.4142 2.25 16V8C2.25 7.58579 2.58579 7.25 3 7.25Z" fill="#6E6F73"/>
<path d="M21.75 8C21.75 7.58579 21.4142 7.25 21 7.25C20.5858 7.25 20.25 7.58579 20.25 8V10C20.25 10.4142 20.5858 10.75 21 10.75C21.4142 10.75 21.75 10.4142 21.75 10V8Z" fill="#6E6F73"/>
<path d="M21.75 14C21.75 13.5858 21.4142 13.25 21 13.25C20.5858 13.25 20.25 13.5858 20.25 14V16C20.25 16.4142 20.5858 16.75 21 16.75C21.4142 16.75 21.75 16.4142 21.75 16V14Z" fill="#6E6F73"/>
</svg>
