<svg width="24" height="24" viewBox="0 0 24 24" fill="none" xmlns="http://www.w3.org/2000/svg">
<path d="M4.53137 11C3.55828 11.0098 2.61837 10.6466 1.90462 9.98515C1.19088 9.32366 0.757461 8.41402 0.693367 7.44299C0.692318 6.94567 0.796963 6.45381 1.00037 5.99999M7.92637 15.977L7.69337 19.5H8.41337C8.6363 19.5 8.85283 19.5745 9.02857 19.7116C9.20432 19.8488 9.3292 20.0407 9.38337 20.257L9.69337 21.5H5.19337L4.28437 13.267L4.19337 12.5C4.19337 11.5717 4.56212 10.6815 5.21849 10.0251C5.87487 9.36874 6.76511 8.99999 7.69337 8.99999H12.6934C13.3567 8.97817 13.996 8.74644 14.5193 8.33817C15.0426 7.92989 15.4229 7.36612 15.6054 6.72799M18.4494 4.63999L18.6634 5.60199C18.7083 5.75866 18.7179 5.92336 18.6914 6.08419C18.665 6.24502 18.6031 6.39795 18.5102 6.53193C18.4174 6.66591 18.296 6.77758 18.1547 6.85887C18.0134 6.94017 17.8558 6.98905 17.6934 7.00199H16.2544C16.0919 6.98905 15.9343 6.94017 15.793 6.85887C15.6518 6.77758 15.5303 6.66591 15.4375 6.53193C15.3447 6.39795 15.2828 6.24502 15.2563 6.08419C15.2298 5.92336 15.2394 5.75866 15.2844 5.60199L15.7844 3.35199C15.8249 3.12076 15.9431 2.91029 16.1195 2.75537C16.2959 2.60045 16.5198 2.51036 16.7544 2.49999H18.1934C18.8503 2.417 19.5152 2.5735 20.0662 2.94081C20.6171 3.30812 21.0173 3.86165 21.1934 4.49999H22.3064C22.4648 4.49995 22.621 4.53757 22.7621 4.60974C22.9031 4.68191 23.025 4.78656 23.1177 4.91509C23.2104 5.04361 23.2712 5.19231 23.2951 5.34894C23.3191 5.50558 23.3054 5.66566 23.2554 5.81599L22.8674 6.97899C22.8142 7.13858 22.7216 7.28219 22.5982 7.3965C22.4748 7.51082 22.3246 7.59216 22.1614 7.63299L19.6934 8.24999C19.7413 12.0529 19.236 15.8425 18.1934 19.5H18.9134C19.1363 19.5 19.3528 19.5745 19.5286 19.7116C19.7043 19.8488 19.8292 20.0407 19.8834 20.257L20.1934 21.5H16.1934L14.6934 15.5L8.00043 16" stroke="#6E6F73" stroke-width="1.3" stroke-linecap="round" stroke-linejoin="round"/>
</svg>
