<svg width="24" height="25" viewBox="0 0 24 25" fill="none" xmlns="http://www.w3.org/2000/svg">
<path fill-rule="evenodd" clip-rule="evenodd" d="M20.2486 23.2C20.158 23.666 19.7673 24.0006 19.3143 24H4.68571C4.23272 24.0006 3.84203 23.666 3.75143 23.2L2 14H22L20.2486 23.2Z" stroke="#6E6F73" stroke-width="1.3" stroke-linecap="round" stroke-linejoin="round"/>
<path fill-rule="evenodd" clip-rule="evenodd" d="M1 11C1 10.4477 1.44772 10 2 10H22C22.5523 10 23 10.4477 23 11V13C23 13.5523 22.5523 14 22 14H2C1.44772 14 1 13.5523 1 13V11Z" stroke="#6E6F73" stroke-width="1.3" stroke-linecap="round" stroke-linejoin="round"/>
<path d="M3.5 7.5L9.5 1.5" stroke="#6E6F73" stroke-width="1.3" stroke-linecap="round" stroke-linejoin="round"/>
<path d="M20.5 7.5L14.5 1.5" stroke="#6E6F73" stroke-width="1.3" stroke-linecap="round" stroke-linejoin="round"/>
<path d="M7 19H17" stroke="#6E6F73" stroke-width="1.3" stroke-linecap="round"/>
</svg>
