<svg width="26" height="24" viewBox="0 0 26 24" fill="none" xmlns="http://www.w3.org/2000/svg">
<path d="M24.5 22.442C22 22.963 20.44 20.463 20.44 20.463C19.654 21.7119 18.2942 22.4835 16.819 22.518C15.3544 22.448 14.0106 21.6849 13.2 20.463C12.4142 21.7116 11.0549 22.4832 9.58 22.518C8.11469 22.4494 6.76998 21.686 5.96 20.463C5.96 20.463 3.952 23 1.5 22.483" stroke="#6E6F73" stroke-width="1.5" stroke-linecap="round" stroke-linejoin="round"/>
<path d="M8 17.727V3.94702C8 2.56631 9.11929 1.44702 10.5 1.44702C11.8807 1.44702 13 2.56631 13 3.94702V4.94702" stroke="#6E6F73" stroke-width="1.5" stroke-linecap="round" stroke-linejoin="round"/>
<path d="M19 17.942V3.94702C19 2.56631 20.1193 1.44702 21.5 1.44702C22.8807 1.44702 24 2.56631 24 3.94702V4.94702" stroke="#6E6F73" stroke-width="1.5" stroke-linecap="round" stroke-linejoin="round"/>
<path d="M8 9H19" stroke="#6E6F73" stroke-width="1.5" stroke-linecap="round" stroke-linejoin="round"/>
<path d="M8 13H19" stroke="#6E6F73" stroke-width="1.5" stroke-linecap="round" stroke-linejoin="round"/>
</svg>
