<svg width="15" height="15" viewBox="0 0 32 32" fill="none" xmlns="http://www.w3.org/2000/svg">
<path d="M22.6666 3.99996C23.0168 3.64976 23.4326 3.37198 23.8901 3.18245C24.3477 2.99293 24.838 2.89539 25.3333 2.89539C25.8285 2.89539 26.3189 2.99293 26.7765 3.18245C27.234 3.37198 27.6498 3.64976 28 3.99996C28.3502 4.35015 28.6279 4.76588 28.8175 5.22343C29.007 5.68098 29.1045 6.17138 29.1045 6.66662C29.1045 7.16187 29.007 7.65226 28.8175 8.10981C28.6279 8.56736 28.3502 8.9831 28 9.33329L9.99996 27.3333L2.66663 29.3333L4.66663 22L22.6666 3.99996Z" stroke="black" stroke-width="2" stroke-linecap="round" stroke-linejoin="round"/>
</svg>
