<svg width="26" height="25" viewBox="0 0 26 25" fill="none" xmlns="http://www.w3.org/2000/svg">
<path d="M3 23.56L4.682 4.98686C4.86198 3.00268 6.59232 1.47994 8.667 1.47998H17C19.0747 1.47994 20.805 3.00268 20.985 4.98686L23 23.56" stroke="#6E6F73" stroke-width="1.3" stroke-linecap="round" stroke-linejoin="round"/>
<path d="M1.5 23.56H4.5" stroke="#6E6F73" stroke-width="1.3" stroke-linecap="round" stroke-linejoin="round"/>
<path d="M21.5 23.56H24.5" stroke="#6E6F73" stroke-width="1.3" stroke-linecap="round" stroke-linejoin="round"/>
<path d="M9.5 1.47998V16" stroke="#6E6F73" stroke-width="1.3" stroke-linecap="round" stroke-linejoin="round"/>
<path d="M16.5 1.47998V16" stroke="#6E6F73" stroke-width="1.3" stroke-linecap="round" stroke-linejoin="round"/>
<path fill-rule="evenodd" clip-rule="evenodd" d="M18 17.3333C18 18.8061 17.0051 20 15.7778 20H10.2222C8.99492 20 8 18.8061 8 17.3333C8 16.597 8.49746 16 9.11111 16H16.8889C17.5025 16 18 16.597 18 17.3333Z" stroke="#6E6F73" stroke-width="1.3" stroke-linecap="round" stroke-linejoin="round"/>
</svg>
