<svg width="20" height="20" viewBox="0 0 24 24" fill="none" xmlns="http://www.w3.org/2000/svg">
<g clip-path="url(#clip0_422_42373)">
<path d="M14.995 7H11.7847C11.1589 7.00021 10.5515 7.19421 10.0609 7.55058C9.57023 7.90695 9.22508 8.40484 9.08132 8.9636C8.93755 9.52236 9.00359 10.1093 9.26873 10.6293C9.53386 11.1494 9.98258 11.5721 10.5422 11.829L13.4648 13.171C14.0244 13.4279 14.4731 13.8506 14.7383 14.3707C15.0034 14.8907 15.0694 15.4776 14.9257 16.0364C14.7819 16.5952 14.4368 17.093 13.9461 17.4494C13.4555 17.8058 12.8481 17.9998 12.2223 18H9M12 18.5V20.5M12 5V6.5M23 12C23 18.0751 18.0751 23 12 23C5.92487 23 1 18.0751 1 12C1 5.92487 5.92487 1 12 1C18.0751 1 23 5.92487 23 12Z" stroke="#6E6F73" stroke-width="1.5" stroke-linecap="round" stroke-linejoin="round"/>
</g>
<defs>
<clipPath id="clip0_422_42373">
<rect width="24" height="24" fill="white"/>
</clipPath>
</defs>
</svg>
