<svg width="20" height="20" viewBox="0 0 24 24" fill="none" xmlns="http://www.w3.org/2000/svg">
<g clip-path="url(#clip0_430_4332)">
<path d="M11.7288 1.21408C11.7445 1.1528 11.78 1.09852 11.8297 1.05977C11.8794 1.02103 11.9405 1 12.0034 1C12.0663 1 12.1273 1.02103 12.177 1.05977C12.2268 1.09852 12.2623 1.1528 12.278 1.21408L13.1313 4.74153H16.7183C16.7788 4.74169 16.8377 4.76146 16.8863 4.7979C16.9349 4.83434 16.9705 4.88553 16.988 4.94393C17.0055 5.00232 17.0038 5.06482 16.9833 5.12221C16.9629 5.1796 16.9246 5.22885 16.8742 5.26268L14.2614 6.93765L15.6311 10.6153C15.6525 10.6725 15.655 10.735 15.6383 10.7938C15.6216 10.8525 15.5866 10.9042 15.5384 10.9414C15.4903 10.9785 15.4315 10.9991 15.3709 11C15.3102 11.0009 15.2509 10.9821 15.2016 10.9464L12.0011 8.64448L8.7995 10.9464C8.75026 10.9821 8.69092 11.0009 8.63027 11C8.56961 10.9991 8.51085 10.9785 8.46269 10.9414C8.41453 10.9042 8.37951 10.8525 8.36283 10.7938C8.34615 10.735 8.34868 10.6725 8.37005 10.6153L9.74089 6.93765L7.12579 5.26268C7.0754 5.22885 7.03714 5.1796 7.01665 5.12221C6.99616 5.06482 6.99454 5.00232 7.01201 4.94393C7.02949 4.88553 7.06514 4.83434 7.1137 4.7979C7.16227 4.76146 7.22118 4.74169 7.28175 4.74153H10.871L11.7288 1.21408Z" stroke="#6E6F73" stroke-width="1.3" stroke-linecap="round" stroke-linejoin="round"/>
<path d="M17.7277 13.2167C17.7434 13.1547 17.7789 13.0997 17.8286 13.0605C17.8783 13.0213 17.9394 13 18.0023 13C18.0651 13 18.1262 13.0213 18.1759 13.0605C18.2256 13.0997 18.2611 13.1547 18.2768 13.2167L19.1321 16.659H22.7183C22.7789 16.6592 22.8378 16.6792 22.8863 16.7161C22.9349 16.753 22.9705 16.8048 22.988 16.864C23.0055 16.9231 23.0038 16.9864 22.9834 17.0445C22.9629 17.1026 22.9246 17.1524 22.8742 17.1867L20.2597 18.8871L21.6291 22.6105C21.6505 22.6684 21.653 22.7317 21.6363 22.7912C21.6197 22.8506 21.5847 22.9031 21.5365 22.9407C21.4884 22.9783 21.4296 22.999 21.369 23C21.3083 23.0009 21.249 22.9819 21.1998 22.9458L18 20.6152L14.7991 22.9458C14.7499 22.9819 14.6905 23.0009 14.6299 23C14.5693 22.999 14.5105 22.9783 14.4624 22.9407C14.4142 22.9031 14.3792 22.8506 14.3625 22.7912C14.3458 22.7317 14.3484 22.6684 14.3697 22.6105L15.7403 18.8871L13.1258 17.1913C13.0754 17.157 13.0371 17.1072 13.0166 17.0491C12.9962 16.991 12.9945 16.9277 13.012 16.8686C13.0295 16.8095 13.0651 16.7576 13.1137 16.7207C13.1622 16.6838 13.2211 16.6638 13.2817 16.6637H16.8701L17.7277 13.2167Z" stroke="#6E6F73" stroke-width="1.3" stroke-linecap="round" stroke-linejoin="round"/>
<path d="M5.7277 13.2141C5.74344 13.1528 5.77895 13.0985 5.82865 13.0598C5.87834 13.021 5.93941 13 6.00226 13C6.06511 13 6.12618 13.021 6.17587 13.0598C6.22557 13.0985 6.26108 13.1528 6.27682 13.2141L7.13213 16.7415H10.7183C10.7789 16.7417 10.8378 16.7615 10.8863 16.7979C10.9349 16.8343 10.9705 16.8855 10.988 16.9439C11.0055 17.0023 11.0038 17.0648 10.9834 17.1222C10.9629 17.1796 10.9246 17.2288 10.8742 17.2627L8.25973 18.9376L9.62913 22.6153C9.6505 22.6725 9.65303 22.735 9.63635 22.7938C9.61967 22.8525 9.58466 22.9042 9.53651 22.9414C9.48836 22.9785 9.42962 22.9991 9.36897 23C9.30833 23.0009 9.24901 22.9821 9.19978 22.9464L6 20.6445L2.79909 22.9464C2.74987 22.9821 2.69054 23.0009 2.6299 23C2.56925 22.9991 2.51051 22.9785 2.46236 22.9414C2.41421 22.9042 2.3792 22.8525 2.36252 22.7938C2.34584 22.735 2.34837 22.6725 2.36974 22.6153L3.74027 18.9376L1.12576 17.2627C1.07538 17.2288 1.03713 17.1796 1.01665 17.1222C0.996166 17.0648 0.99454 17.0023 1.01201 16.9439C1.02948 16.8855 1.06512 16.8343 1.11368 16.7979C1.16223 16.7615 1.22113 16.7417 1.28168 16.7415H4.87014L5.7277 13.2141Z" stroke="#6E6F73" stroke-width="1.3" stroke-linecap="round" stroke-linejoin="round"/>
</g>
<defs>
<clipPath id="clip0_430_4332">
<rect width="24" height="24" fill="white"/>
</clipPath>
</defs>
</svg>
